<?xml version="1.0" encoding="UTF-8"?><svg id="uuid-eba9df46-e2a9-46b0-8012-34fa1a30966e" xmlns="http://www.w3.org/2000/svg" width="1040.98" height="996.37" viewBox="0 0 1040.98 996.37"><defs><style>.uuid-74862815-8b41-457d-8f89-b896a746db17{fill:#fff;}.uuid-edfaf77c-0147-4268-a0ee-afd4f6d35ce6{fill:#ff0076;}</style></defs><g id="uuid-3f2f6219-df69-4be0-b713-c87f73f4dce3"><g><path class="uuid-74862815-8b41-457d-8f89-b896a746db17" d="M378.54,582.1L0,86.31H317.9l236.52,307.2-175.89,188.58Zm231.48-110.55l395.29,522.58h-310.2l-242.87-317.57,157.78-205.01Zm130.31,432.14h85.42L273.02,173.41h-91.79L740.33,903.69Z"/><path class="uuid-edfaf77c-0147-4268-a0ee-afd4f6d35ce6" d="M1040.98,203.42c-.8,137.38-135.49,235.15-266.21,192.45-13.66-4.46-23-2.61-33.32,7.75-123.76,124.32-247.96,248.19-371.97,372.27-33.32,33.34-56.61,72.76-69.06,118.22-14.38,52.52-46.92,86.75-100.24,99.08-65.41,15.12-131.83-25.15-151.05-90.35-18.94-64.27,15.33-133.47,77.94-156.99,19.13-7.19,38.84-12.96,57.59-20.98,30.61-13.1,57.56-32.12,81.13-55.64,124.65-124.41,249.14-248.99,373.9-373.28,9.13-9.09,9.03-17.84,5.34-29.18-31.46-96.78,12.22-201.26,102.61-245.76,37.45-18.44,77.04-24.83,118.44-18.81,2.79,.41,7.34,2.2,7.56,3.82,.37,2.74-1.34,6.58-3.44,8.71-25.13,25.47-50.29,50.91-75.87,75.92-14.99,14.65-21.63,31.59-18.93,52.56,2.78,21.68,4.41,43.51,7.08,65.22,3.38,27.54,22.93,46.44,50.87,49.59,22.42,2.53,44.89,4.71,67.32,7.14,18.57,2.01,34.02-4.1,47.08-17.24,25.47-25.62,51.02-51.16,76.72-76.55,2.49-2.46,6.19-3.69,9.32-5.49,1.59,3.53,4.04,6.94,4.6,10.63,1.34,8.9,1.78,17.94,2.59,26.92Z"/></g></g></svg>